<svg  viewBox="0 0 48 48" fill="none" xmlns="http://www.w3.org/2000/svg">
<path d="M24.0116 45.1626C35.1075 45.1626 44.2098 36.6313 45.1111 25.7734H47.9586C47.0506 38.2001 36.6761 48 24.0116 48C10.7504 48 0 37.2548 0 24C0 10.7452 10.7504 0 24.0116 0C36.9161 0 47.443 10.1749 48 22.936H45.1581C44.6035 11.7426 35.348 2.83744 24.0116 2.83744C12.3182 2.83744 2.83881 12.3122 2.83881 24C2.83881 35.6878 12.3182 45.1626 24.0116 45.1626Z" fill="black"/>
<path d="M24.0116 35.9409C30.6095 35.9409 35.9582 30.5948 35.9582 24C35.9582 17.4052 30.6095 12.0591 24.0116 12.0591C17.4136 12.0591 12.0649 17.4052 12.0649 24C12.0649 30.5948 17.4136 35.9409 24.0116 35.9409Z" fill="black"/>
</svg>
